# AST/ASF file generated using VICON BodyLanguage
# -----------------------------------------------
:version 1.10
:name VICON
:units
  mass 1.0
  length 0.45
  angle deg
:documentation
   .ast/.asf automatically generated from VICON data using
   VICON BodyBuilder and BodyLanguage model FoxedUp or BRILLIANT.MOD
:root
   order TX TY TZ RX RY RZ
   axis XYZ
   position 0 0 0  
   orientation 0 0 0 
:bonedata
  begin
     id 1 
     name lhipjoint
     direction 0.547975 -0.797114 0.253638 
     length 2.36201 
     axis 0 0 0  XYZ
  end
  begin
     id 2 
     name lfemur
     direction 0.34202 -0.939693 0  
     length 7.69075  
     axis 0 0 20  XYZ
    dof rx ry rz
    limits (-160.0 20.0)
           (-70.0 70.0)
           (-60.0 70.0)
  end
  begin
     id 3 
     name ltibia
     direction 0.34202 -0.939693 0   
     length 7.91399   
     axis 0 0 20   XYZ
    dof rx
    limits (-10.0 170.0)
  end
  begin
     id 4 
     name lfoot
     direction 0.0705293 -0.193778 0.978507   
     length 2.13618   
     axis -90 7.62852e-016 20   XYZ
    dof rx rz
    limits (-45.0 90.0)
           (-70.0 20.0)
  end
  begin
     id 5 
     name ltoes
     direction 1.53592e-011 -4.21925e-011 1   
     length 1.07518   
     axis -90 7.62852e-016 20   XYZ
    dof rx
    limits (-90.0 20.0)
  end
  begin
     id 6 
     name rhipjoint
     direction -0.57 -0.782963 0.249136   
     length 2.4047  
     axis 0 0 0  XYZ 
  end
  begin
     id 7 
     name rfemur
     direction -0.34202 -0.939693 0   
     length 7.51486   
     axis 0 0 -20   XYZ
    dof rx ry rz
    limits (-160.0 20.0)
           (-70.0 70.0)
           (-70.0 60.0)
  end
  begin
     id 8 
     name rtibia
     direction -0.34202 -0.939693 0   
     length 8.08317   
     axis 0 0 -20   XYZ
    dof rx
    limits (-10.0 170.0)
 end
 begin
     id 9 
     name rfoot
     direction -0.104954 -0.281256 0.953876   
     length 2.30343  
     axis -90 -7.62852e-016 -20   XYZ
    dof rx rz
    limits (-45.0 90.0)
           (-20.0 70.0)
  end
  begin
     id 10 
     name rtoes
     direction -1.53556e-011 -4.21922e-011 1   
     length 1.14803   
     axis -90 -7.62852e-016 -20   XYZ
    dof rx
    limits (-90.0 20.0)
  end
  begin
     id 11 
     name lowerback
     direction -0.0152855 0.99353 -0.11254   
     length 2.05311   
     axis 0 0 0   XYZ
    dof rx ry rz
    limits (-20.0 45.0)
           (-30.0 30.0)
           (-30.0 30.0)
  end
  begin
     id 12 
     name upperback
     direction -0.00157509 0.999443 -0.033332   
     length 2.06353   
     axis 0 0 0   XYZ
    dof rx ry rz
    limits (-20.0 45.0)
           (-30.0 30.0)
           (-30.0 30.0)
  end
  begin
     id 13 
     name thorax
     direction 0.00577788 0.999804 0.0189484   
     length 2.08472   
     axis 0 0 0   XYZ
    dof rx ry rz
    limits (-20.0 45.0)
           (-30.0 30.0)
           (-30.0 30.0)
  end
  begin
     id 14 
     name lowerneck
     direction -1.09301e-005 0.994719 0.10264   
     length 1.76249   
     axis 0 0 0   XYZ
    dof rx ry rz
    limits (-20.0 45.0)
           (-30.0 30.0)
           (-30.0 30.0)
  end
  begin
     id 15 
     name upperneck
     direction 0.0495018 0.988526 -0.142706   
     length 1.77897   
     axis 0 0 0   XYZ
    dof rx ry rz
    limits (-20.0 45.0)
           (-30.0 30.0)
           (-30.0 30.0)
  end
  begin
     id 16
     name head
     direction 0.0142736 0.998114 -0.0597101  
     length 1.78934  
     axis 0 0 0   XYZ
    dof rx ry rz
    limits (-20.0 45.0)
           (-30.0 30.0)
           (-30.0 30.0)
  end
  begin
     id 17 
     name lclavicle
     direction 0.918111 0.396107 -0.0130883  
     length 3.37276  
     axis 0 0 0   XYZ
    dof ry rz
    limits (-20.0 10.0)
           (0.0 20.0)
  end
  begin
     id 18 
     name lhumerus
     direction 1 -4.48975e-011 -3.26108e-027   
     length 5.34298   
     axis 180 -30 -90   XYZ
    dof rx ry rz
    limits (-60.0 90.0)
           (-90.0 90.0)
           (-90.0 90.0)
  end
  begin
     id 19
     name lradius
     direction 1 -4.48964e-011 -8.84413e-028   
     length 3.67262   
     axis 180 -30 -90   XYZ
    dof rx
    limits (-10.0 170.0)
  end
  begin
     id 20
     name lwrist
     direction 1 -4.48991e-011 -1.24264e-027   
     length 1.83631   
     axis -2.17013e-015 90 90   XYZ
    dof ry
    limits (-180.0 0.0)
 end
  begin
     id 21 
     name lhand
     direction 1 -4.48855e-011 -2.48528e-027   
     length 0.599298   
     axis 1.58582e-015 90 90   XYZ
    dof rx rz
    limits (-90.0 90.0)
           (-45.0 45.0)
  end
  begin
     id 22 
     name lfingers
     direction 1 -4.48811e-011 -4.97056e-027   
     length 0.48317   
     axis 3.17164e-015 90 90   XYZ
    dof rx
    limits (0.0 90.0)
  end
  begin
     id 23
     name lthumb
     direction 0.707107 -6.34882e-011 0.707107   
     length 0.693738   
     axis -90 45 2.85299e-015   XYZ
    dof rx rz
    limits (-45.0 45.0)
           (-45.0 45.0)
  end
  begin
     id 24 
     name rclavicle
     direction -0.920511 0.384752 -0.0680135   
     length 3.43787  
     axis 0 0 0   XYZ 
    dof ry rz
    limits (-10.0 20.0)
           (-20.0 0.0)
  end
  begin
     id 25 
     name rhumerus
     direction -0.999976 -0.00330524 0.00603274  
     length 5.5498   
     axis 180 30 90   XYZ
    dof rx ry rz
    limits (-90.0 60.0)
           (-90.0 90.0)
           (-90.0 90.0)
  end
  begin
     id 26 
     name rradius
     direction -1 -4.48967e-011 8.62438e-027   
     length 3.69401   
     axis 180 30 90   XYZ
    dof rx
    limits (-10.0 170.0)
  end
  begin
     id 27 
     name rwrist
     direction -1 -4.4897e-011 9.54866e-027   
     length 1.84701   
     axis -7.69462e-015 -90 -90   XYZ
    dof ry
    limits (-180.0 0.0)
  end
  begin
     id 28
     name rhand
     direction -1 -4.48982e-011 1.90973e-026   
     length 0.638113   
     axis -1.21857e-014 -90 -90   XYZ
    dof rx rz
    limits (-90.0 90.0)
           (-45.0 45.0)
  end
  begin
     id 29
     name rfingers
     direction -1 -4.48936e-011 3.81946e-026   
     length 0.514463   
     axis -2.43714e-014 -90 -90   XYZ
    dof rx
    limits (0.0 90.0)
  end
  begin
     id 30
     name rthumb
     direction -0.707107 -6.34942e-011 0.707107   
     length 0.738669   
     axis -90 -45 -2.85299e-015   XYZ
    dof rx rz
    limits (-45.0 45.0)
           (-45.0 45.0)
  end
:hierarchy
  begin
    root lhipjoint rhipjoint lowerback
    lhipjoint lfemur
    lfemur ltibia
    ltibia lfoot
    lfoot ltoes
    rhipjoint rfemur
    rfemur rtibia
    rtibia rfoot
    rfoot rtoes
    lowerback upperback
    upperback thorax
    thorax lowerneck lclavicle rclavicle
    lowerneck upperneck
    upperneck head
    lclavicle lhumerus
    lhumerus lradius
    lradius lwrist
    lwrist lhand lthumb
    lhand lfingers
    rclavicle rhumerus
    rhumerus rradius
    rradius rwrist
    rwrist rhand rthumb
    rhand rfingers
  end

#!OML:ASF F:\twosubjects\two\Thursday\Session 1\Rory.ASF
:FULLY-SPECIFIED
:DEGREES
261
root 9.88064 12.4459 12.0805 -157.996 -40.0165 169.122
lowerback 32.7021 0.409363 -4.23026
upperback 7.9222 -2.76026 -3.24089
thorax -8.05344 -1.86016 -0.0866026
lowerneck -7.95064 -15.6693 -10.3537
upperneck -6.45125 -21.5688 30.1823
head 4.26182 -10.9705 8.95612
rclavicle 4.41302e-014 -3.00165e-014
rhumerus 22.9877 -16.0201 -61.9786
rradius 125.729
rwrist -4.88272
rhand 12.2646 4.83562
rfingers 7.12502
rthumb 37.2709 -21.1583
lclavicle 4.41302e-014 -3.00165e-014
lhumerus 14.6567 -67.9335 73.5402
lradius 97.5251
lwrist -1.36115
lhand -27.1341 73.6021
lfingers 7.12502
lthumb -0.549576 -103.581
rfemur -5.17123 7.63407 -2.60589
rtibia 83.3948
rfoot -19.4042 -5.14718
rtoes -35.1714
lfemur -89.4971 14.8803 -19.0955
ltibia 87.2129
lfoot -3.16648 -24.5491
ltoes 21.1367
262
root 9.87535 12.4759 12.071 -158.032 -39.9972 169.234
lowerback 32.7767 0.391472 -4.36458
upperback 7.81555 -2.82441 -3.24097
thorax -8.19132 -1.87969 0.0108152
lowerneck -7.83842 -15.6602 -10.528
upperneck -6.32901 -21.5828 30.2594
head 4.31407 -10.9713 9.00863
rclavicle -5.18828e-014 8.22969e-014
rhumerus 22.9756 -15.8269 -61.9568
rradius 125.817
rwrist -4.75014
rhand 12.3164 4.74012
rfingers 7.12502
rthumb 37.3199 -21.241
lclavicle -5.18828e-014 8.22969e-014
lhumerus 14.3472 -67.8559 74.0086
lradius 97.2899
lwrist -1.46193
lhand -27.3558 73.9931
lfingers 7.12502
lthumb -0.763738 -103.971
rfemur -5.23652 7.73106 -2.43857
rtibia 83.3396
rfoot -19.4337 -4.49512
rtoes -32.2187
lfemur -89.3295 14.9223 -19.0318
ltibia 87.1394
lfoot -3.43546 -24.6653
ltoes 21.1165
263
root 9.86781 12.4546 12.0847 -157.838 -40.1482 169.312
lowerback 32.6578 0.204636 -4.07487
upperback 7.7148 -2.94484 -3.33007
thorax -8.27375 -1.92489 -0.19352
lowerneck -7.68151 -15.6738 -10.705
upperneck -6.26879 -21.6309 30.4475
head 4.36544 -10.9988 9.0946
rclavicle 4.63168e-014 4.19436e-014
rhumerus 22.7959 -15.9015 -61.9596
rradius 125.939
rwrist -4.55581
rhand 13.1616 4.86961
rfingers 7.12502
rthumb 38.1185 -20.8973
lclavicle 4.63168e-014 4.19436e-014
lhumerus 14.0037 -67.8979 74.385
lradius 97.0681
lwrist -1.59197
lhand -27.491 74.406
lfingers 7.12502
lthumb -0.894338 -104.384
rfemur -5.44836 7.57573 -2.39425
rtibia 83.3382
rfoot -19.364 -4.98353
rtoes -34.4988
lfemur -89.9081 14.9357 -19.2122
ltibia 87.26
lfoot -3.10817 -24.7081
ltoes 21.3359
264
root 9.84993 12.4641 12.0973 -157.478 -40.3592 169.268
lowerback 32.1304 0.0160056 -3.68929
upperback 8.06814 -3.00417 -3.40315
thorax -8.42141 -1.95904 -0.493453
lowerneck -7.46643 -15.6976 -10.754
upperneck -6.4042 -21.6539 30.5902
head 4.32237 -11.0382 9.16218
rclavicle 2.0276e-014 2.127e-014
rhumerus 22.5228 -16.245 -61.7765
rradius 126.124
rwrist -4.50902
rhand 13.5802 4.78211
rfingers 7.12502
rthumb 38.5136 -20.8755
lclavicle 2.0276e-014 2.127e-014
lhumerus 14.0805 -68.1366 74.4339
lradius 97.0362
lwrist -1.66539
lhand -27.3724 74.0833
lfingers 7.12502
lthumb -0.779773 -104.062
rfemur -5.63399 7.41632 -2.27189
rtibia 83.0794
rfoot -18.8624 -6.56001
rtoes -39.176
lfemur -90.2887 14.6115 -19.3302
ltibia 87.2036
lfoot -2.89766 -24.5527
ltoes 21.8254
265
root 9.8375 12.4685 12.1002 -157.228 -40.4055 169.177
lowerback 32.0002 0.024034 -3.7286
upperback 8.02411 -2.98976 -3.42654
thorax -8.41073 -1.94666 -0.50566
lowerneck -7.23446 -15.7258 -10.6704
upperneck -6.73947 -21.649 30.6938
head 4.19051 -11.0897 9.20988
rclavicle -2.42517e-014 6.36111e-014
rhumerus 22.4143 -16.4568 -61.5735
rradius 126.194
rwrist -4.63145
rhand 13.1501 4.72106
rfingers 7.12502
rthumb 38.1076 -21.0488
lclavicle -2.42517e-014 6.36111e-014
lhumerus 14.2747 -68.3417 74.4227
lradius 97.0377
lwrist -1.73619
lhand -27.5901 73.6936
lfingers 7.12502
lthumb -0.989985 -103.671
rfemur -5.77795 7.04538 -2.48623
rtibia 82.8972
rfoot -18.5413 -6.91947
rtoes -39.8192
lfemur -90.546 14.5893 -19.5948
ltibia 87.2039
lfoot -3.11959 -24.52
ltoes 21.1273
266
root 9.81964 12.5121 12.1025 -156.926 -40.471 169.057
lowerback 31.8647 -0.0439781 -3.6531
upperback 7.97746 -3.04382 -3.52332
thorax -8.40984 -1.96783 -0.641229
lowerneck -6.94355 -15.7392 -10.6159
upperneck -7.11424 -21.6254 30.8702
head 4.04871 -11.1428 9.29462
rclavicle -1.37161e-014 2.38542e-015
rhumerus 22.3116 -16.5677 -61.5729
rradius 126.292
rwrist -4.83931
rhand 12.5501 4.81743
rfingers 7.12502
rthumb 37.5408 -21.1053
lclavicle -1.37161e-014 2.38542e-015
lhumerus 14.5157 -68.4118 74.6224
lradius 96.6469
lwrist -1.88679
lhand -28.014 73.4579
lfingers 7.12502
lthumb -1.39944 -103.433
rfemur -6.0278 6.10675 -3.12627
rtibia 82.6334
rfoot -18.3587 -5.72287
rtoes -36.5681
lfemur -90.4902 14.3376 -19.7456
ltibia 87.0099
lfoot -3.46309 -24.3134
ltoes 20.5053
